<?xml version="1.0" encoding="UTF-8" standalone="no"?>
<!-- Created with Inkscape (http://www.inkscape.org/) -->

<svg
   xmlns:dc="http://purl.org/dc/elements/1.1/"
   xmlns:cc="http://creativecommons.org/ns#"
   xmlns:rdf="http://www.w3.org/1999/02/22-rdf-syntax-ns#"
   xmlns:svg="http://www.w3.org/2000/svg"
   xmlns="http://www.w3.org/2000/svg"
   xmlns:sodipodi="http://sodipodi.sourceforge.net/DTD/sodipodi-0.dtd"
   xmlns:inkscape="http://www.inkscape.org/namespaces/inkscape"
   version="1.1"
   width="609.91681"
   height="128.02815"
   id="svg2"
   inkscape:version="0.48.3.1 r9886"
   sodipodi:docname="logo.svg">
  <sodipodi:namedview
     pagecolor="#ffffff"
     bordercolor="#666666"
     borderopacity="1"
     objecttolerance="10"
     gridtolerance="10"
     guidetolerance="10"
     inkscape:pageopacity="0"
     inkscape:pageshadow="2"
     inkscape:window-width="1600"
     inkscape:window-height="845"
     id="namedview3001"
     showgrid="false"
     fit-margin-top="0"
     fit-margin-left="0"
     fit-margin-right="0"
     fit-margin-bottom="0"
     inkscape:zoom="0.66041902"
     inkscape:cx="304.80781"
     inkscape:cy="85.159554"
     inkscape:window-x="0"
     inkscape:window-y="27"
     inkscape:window-maximized="1"
     inkscape:current-layer="svg2" />
  <defs
     id="defs4" />
  <metadata
     id="metadata7">
    <rdf:RDF>
      <cc:Work
         rdf:about="">
        <dc:format>image/svg+xml</dc:format>
        <dc:type
           rdf:resource="http://purl.org/dc/dcmitype/StillImage" />
        <dc:title />
      </cc:Work>
    </rdf:RDF>
  </metadata>
  <g
     id="layer1"
     transform="translate(-67.239431,-483.3125)">
    <g
       id="g3022">
      <path
         d="m 221.89491,483.3125 -12.1476,0.47743 c -2.42952,18.61961 5.44056,40.85043 -7.28856,55.85885 -12.72912,15.00843 -38.33243,13.68622 -57.49864,20.52932 l -0.0127,0.80566 -0.0126,-0.77581 C 125.7686,553.36484 100.16528,554.68705 87.43617,539.67862 74.70705,524.6702 82.57713,502.43939 80.14761,483.81977 L 68,483.34234 c 0,21.32504 -1.71128,47.67205 0,63.9751 1.71128,16.30305 3.4655,21.50822 10.123,32.46497 6.6575,10.95675 16.63996,21.09318 28.74932,26.73586 12.10936,5.64269 25.91489,4.77427 38.87232,4.77427 l 0,-0.0149 c 12.49228,0.0561 25.66141,0.62386 37.27795,-4.78918 12.10936,-5.64268 22.09182,-15.77911 28.74932,-26.73586 6.65751,-10.95676 8.41172,-16.16192 10.123,-32.46498 1.71128,-16.30305 0,-42.65006 0,-63.97509 z"
         id="rect2987"
         style="fill:#000000;fill-opacity:1;stroke:none"
         inkscape:connector-curvature="0" />
      <g
         id="text2991"
         style="font-size:29.89801788px;font-style:normal;font-weight:normal;line-height:125%;letter-spacing:0px;word-spacing:0px;fill:#000000;fill-opacity:1;stroke:none;font-family:Sans">
        <path
           d="m 240.98778,572.36679 c 0.96026,-1.5312 2.36173,-3.1922 4.20441,-4.98301 3.14032,-2.36169 5.00894,-3.55553 5.60588,-3.58153 3.32198,-1.66095 7.52638,-2.49145 12.61322,-2.4915 4.95702,0.38935 9.52477,1.94653 13.70326,4.67157 4.30817,3.16632 7.26683,7.57835 8.87597,13.2361 0.4152,1.55721 0.62283,4.10062 0.62288,7.63022 l 0,23.51354 -3.58153,0 0,-23.9807 c -5e-5,-9.86216 -4.51589,-16.55806 -13.54754,-20.08773 -1.45341,-0.54497 -3.94491,-0.96022 -7.47451,-1.24575 -3.1144,5e-5 -6.59211,0.83055 -10.43316,2.4915 -2.30984,1.40151 -3.81512,2.49155 -4.51584,3.2701 -2.49152,2.33582 -4.30823,5.554 -5.45016,9.65457 -0.41526,2.38771 -0.62289,5.24256 -0.62288,8.56453 l 0,21.33348 -3.58153,0 0,-49.20715 3.58153,0 0,11.21176"
           id="path3004"
           style="font-size:79.7280426px;font-variant:normal;font-weight:bold;font-stretch:normal;text-align:start;line-height:125%;writing-mode:lr-tb;text-anchor:start;font-family:Steiner;-inkscape-font-specification:Steiner Bold"
           inkscape:connector-curvature="0" />
        <path
           d="m 315.42138,561.46647 c 7.16303,5e-5 13.33988,2.38773 18.53054,7.16307 l 2.4915,3.11437 c 2.69908,4.15254 4.04864,8.72029 4.04869,13.70326 l 0,1.09003 -45.31418,0 0,0.7786 c 0,4.17847 1.50528,8.27906 4.51585,12.30178 3.37389,3.24415 6.38446,5.21659 9.03169,5.91732 2.6472,0.8305 4.87917,1.24575 6.69591,1.24575 9.10952,0 15.6497,-3.89296 19.62058,-11.67891 0.62282,-1.3755 1.08998,-3.0365 1.40146,-4.98301 l 3.73726,0 0,0.31144 c -5e-5,2.38771 -1.2458,5.76161 -3.73726,10.12173 -2.88084,3.76321 -6.61809,6.56614 -11.21175,8.40881 -3.34799,0.93432 -5.99521,1.40147 -7.94166,1.40147 l -2.4915,0 c -4.67159,0 -9.34315,-1.50528 -14.0147,-4.51584 -3.84107,-3.47772 -6.12494,-6.17684 -6.85163,-8.09738 -1.76481,-3.89296 -2.64722,-7.83783 -2.64722,-11.83463 0,-3.97081 1.03813,-8.17521 3.11438,-12.61323 2.72507,-4.61962 6.82566,-7.99352 12.30179,-10.12172 2.82887,-0.83046 5.73562,-1.40142 8.72025,-1.71291 m -19.93201,21.4892 41.10977,0 0,-0.15572 c -0.59697,-3.86699 -1.687,-6.82564 -3.27009,-8.87597 -2.30987,-3.29601 -5.32043,-5.63179 -9.03169,-7.00735 -3.06251,-1.08999 -5.81354,-1.66096 -8.2531,-1.71291 -2.05033,5e-5 -5.00898,0.57101 -8.87598,1.71291 -2.51747,1.14198 -5.00896,2.9587 -7.4745,5.45016 -2.80295,3.78919 -4.20441,7.31881 -4.20441,10.58888"
           id="path3006"
           style="font-size:79.7280426px;font-variant:normal;font-weight:bold;font-stretch:normal;text-align:start;line-height:125%;writing-mode:lr-tb;text-anchor:start;font-family:Steiner;-inkscape-font-specification:Steiner Bold"
           inkscape:connector-curvature="0" />
        <path
           d="m 373.97166,561.46647 16.81764,0 0,3.73725 -17.90767,0 c -6.92951,5e-5 -11.70488,1.03817 -14.32613,3.11438 -3.71131,1.84271 -6.56616,5.63187 -8.56454,11.36747 -0.41525,1.63508 -0.72669,3.71133 -0.93431,6.22876 0.20762,3.11439 0.72668,5.86542 1.55719,8.25309 2.07624,4.95706 5.39824,8.53859 9.966,10.7446 2.5953,1.24576 6.74779,1.86863 12.45751,1.86863 l 17.75195,0 0,3.58153 -22.11208,0 c -7.60429,0 -13.88494,-3.11437 -18.84198,-9.34313 -1.6091,-2.30982 -2.85485,-5.16466 -3.73725,-8.56453 l -0.93431,-5.60588 c 0,-3.9189 0.8824,-8.0714 2.64722,-12.45751 l 2.02434,-3.27009 c 2.75103,-4.04865 6.74781,-6.85159 11.99035,-8.40882 1.92052,-0.83045 5.9692,-1.2457 12.14607,-1.24575"
           id="path3008"
           style="font-size:79.7280426px;font-variant:normal;font-weight:bold;font-stretch:normal;text-align:start;line-height:125%;writing-mode:lr-tb;text-anchor:start;font-family:Steiner;-inkscape-font-specification:Steiner Bold"
           inkscape:connector-curvature="0" />
        <path
           d="m 399.04239,588.71726 0.15572,0 c 8.97977,3e-5 16.60999,-3.5815 22.89067,-10.74459 3.50364,-4.28224 5.6837,-8.79808 6.54019,-13.54754 l 0.46716,-3.11438 3.42581,0 c -0.49315,4.72352 -1.47937,8.61648 -2.95866,11.67891 -1.14197,2.82893 -3.78919,6.46237 -7.94166,10.90032 -0.20765,3e-5 -0.72671,0.41528 -1.55719,1.24575 -0.98624,0.83053 -1.60912,1.24578 -1.86862,1.24575 l 0,0.15572 c 3.73722,0.31146 7.68209,1.71293 11.83463,4.20441 6.43633,5.11278 9.65452,11.49725 9.65457,19.15342 l 0,0.31143 -3.73725,0 0,-1.7129 c -5e-5,-2.07625 -0.98627,-5.08681 -2.95866,-9.0317 -4.2304,-6.33254 -10.30343,-9.49882 -18.21911,-9.49884 -1.34958,2e-5 -4.51586,0.57098 -9.49884,1.7129 l -6.07304,0.7786 -0.15572,0 0,17.90766 -3.58153,0 0,-66.9591 3.58153,0 0,45.31418"
           id="path3010"
           style="font-size:79.7280426px;font-variant:normal;font-weight:bold;font-stretch:normal;text-align:start;line-height:125%;writing-mode:lr-tb;text-anchor:start;font-family:Steiner;-inkscape-font-specification:Steiner Bold"
           inkscape:connector-curvature="0" />
        <path
           d="m 447.93811,572.52251 0.15572,0 c 2.49149,-4.48985 6.74781,-7.75995 12.76895,-9.81029 2.54338,-0.83045 5.34632,-1.2457 8.40881,-1.24575 l 1.09004,0 c 4.80129,5e-5 9.8362,1.92058 15.10472,5.7616 3.14029,2.88083 5.26844,5.83949 6.38447,8.87597 1.14189,2.54344 1.71286,5.86544 1.71291,9.966 -5e-5,4.64564 -0.88246,8.4867 -2.64722,11.5232 -2.18011,4.85324 -6.22879,8.53859 -12.14607,11.05604 -3.0625,1.14193 -6.48831,1.7129 -10.27744,1.7129 l -1.09003,0 c -5.47613,0 -10.82248,-2.23197 -16.03904,-6.69591 -1.34957,-1.45336 -2.49151,-2.85483 -3.42582,-4.20441 l 0,10.90032 -3.58153,0 0,-66.9591 3.58153,0 0,29.11943 m 0.31144,12.30178 0,0.7786 -0.15572,0.15572 0.15572,0.15572 0,0.62287 c -10e-6,9.21338 4.67156,15.59785 14.0147,19.15342 2.2579,0.62288 4.54177,0.93431 6.85162,0.93431 7.83782,0 13.91085,-3.32199 18.21911,-9.966 1.76476,-3.73724 2.64717,-7.31877 2.64722,-10.7446 -5e-5,-5.08679 -1.66105,-9.75835 -4.983,-14.0147 -3.24419,-2.95862 -5.94331,-4.72343 -8.09738,-5.29444 -2.75107,-0.93427 -5.34638,-1.40142 -7.78595,-1.40147 -5.37232,5e-5 -10.30341,1.81676 -14.79328,5.45016 -2e-5,0.20766 -0.46717,0.72673 -1.40147,1.55719 -3.11439,3.97086 -4.67158,8.17527 -4.67157,12.61322"
           id="path3012"
           style="font-size:79.7280426px;font-variant:normal;font-weight:bold;font-stretch:normal;text-align:start;line-height:125%;writing-mode:lr-tb;text-anchor:start;font-family:Steiner;-inkscape-font-specification:Steiner Bold"
           inkscape:connector-curvature="0" />
        <path
           d="m 522.37171,561.46647 c 7.16303,5e-5 13.33987,2.38773 18.53054,7.16307 l 2.4915,3.11437 c 2.69908,4.15254 4.04864,8.72029 4.04869,13.70326 l 0,1.09003 -45.31418,0 0,0.7786 c -1e-5,4.17847 1.50527,8.27906 4.51585,12.30178 3.37389,3.24415 6.38445,5.21659 9.03169,5.91732 2.6472,0.8305 4.87916,1.24575 6.69591,1.24575 9.10951,0 15.6497,-3.89296 19.62057,-11.67891 0.62283,-1.3755 1.08998,-3.0365 1.40147,-4.98301 l 3.73725,0 0,0.31144 c -5e-5,2.38771 -1.2458,5.76161 -3.73725,10.12173 -2.88084,3.76321 -6.61809,6.56614 -11.21176,8.40881 -3.34798,0.93432 -5.9952,1.40147 -7.94166,1.40147 l -2.4915,0 c -4.67158,0 -9.34314,-1.50528 -14.01469,-4.51584 -3.84108,-3.47772 -6.12495,-6.17684 -6.85163,-8.09738 -1.76482,-3.89296 -2.64722,-7.83783 -2.64722,-11.83463 0,-3.97081 1.03812,-8.17521 3.11437,-12.61323 2.72508,-4.61962 6.82567,-7.99352 12.30179,-10.12172 2.82887,-0.83046 5.73562,-1.40142 8.72026,-1.71291 m -19.93201,21.4892 41.10977,0 0,-0.15572 c -0.59697,-3.86699 -1.687,-6.82564 -3.2701,-8.87597 -2.30987,-3.29601 -5.32043,-5.63179 -9.03169,-7.00735 -3.0625,-1.08999 -5.81353,-1.66096 -8.2531,-1.71291 -2.05032,5e-5 -5.00898,0.57101 -8.87597,1.71291 -2.51747,1.14198 -5.00897,2.9587 -7.4745,5.45016 -2.80295,3.78919 -4.20442,7.31881 -4.20441,10.58888"
           id="path3014"
           style="font-size:79.7280426px;font-variant:normal;font-weight:bold;font-stretch:normal;text-align:start;line-height:125%;writing-mode:lr-tb;text-anchor:start;font-family:Steiner;-inkscape-font-specification:Steiner Bold"
           inkscape:connector-curvature="0" />
        <path
           d="m 575.93899,561.46647 c 9.86216,5e-5 17.18094,3.68539 21.95636,11.05604 l 0,-11.21176 3.42581,0 0,49.05143 -3.42581,0 0,-10.90032 c -2.88085,4.61967 -7.39669,7.94167 -13.54754,9.96601 -2.25796,0.62288 -4.07467,0.93431 -5.45016,0.93431 l -1.40147,0 c -6.12496,0 -11.21177,-1.45337 -15.26044,-4.36012 -4.10061,-2.80294 -7.00736,-6.74781 -8.72026,-11.83464 -0.93432,-3.21817 -1.40147,-6.0211 -1.40147,-8.40881 0,-3.76318 1.03812,-7.86377 3.11438,-12.30179 3.27008,-5.52798 8.04546,-9.21332 14.32613,-11.05604 3.14031,-0.62282 5.26846,-0.93426 6.38447,-0.93431 m -19.93201,23.82498 0,0.31144 -0.15572,0.15572 0.15572,0.15572 0,0.62287 c 0,7.76001 3.47771,13.62541 10.43316,17.59623 3.4777,1.661 6.7478,2.4915 9.81029,2.4915 l 0.93431,0 c 6.28063,0 11.67888,-2.49149 16.19476,-7.4745 2.90671,-4.12654 4.36008,-8.59047 4.36013,-13.39182 -5e-5,-6.54016 -2.54345,-11.93841 -7.63022,-16.19476 -4.15254,-2.90671 -8.46076,-4.36008 -12.92467,-4.36013 l -0.93431,0 c -5.06088,5e-5 -9.88816,1.92058 -14.48185,5.7616 -3.84107,4.15254 -5.7616,8.92791 -5.7616,14.32613"
           id="path3016"
           style="font-size:79.7280426px;font-variant:normal;font-weight:bold;font-stretch:normal;text-align:start;line-height:125%;writing-mode:lr-tb;text-anchor:start;font-family:Steiner;-inkscape-font-specification:Steiner Bold"
           inkscape:connector-curvature="0" />
        <path
           d="m 609.41855,568.16238 c 3.78915,-4.46389 8.30499,-6.69586 13.54754,-6.69591 l 0.31143,0 0,3.42581 -0.15571,0 c -5.00897,5e-5 -8.85003,2.02439 -11.5232,6.07304 -1.34957,1.84271 -2.02435,4.90518 -2.02434,9.18741 l 0,30.20945 -3.58154,0 0,-49.05143 3.42582,0 0,6.85163"
           id="path3018"
           style="font-size:79.7280426px;font-variant:normal;font-weight:bold;font-stretch:normal;text-align:start;line-height:125%;writing-mode:lr-tb;text-anchor:start;font-family:Steiner;-inkscape-font-specification:Steiner Bold"
           inkscape:connector-curvature="0" />
        <path
           d="m 673.73043,543.40308 3.42582,0 0,66.9591 -3.42582,0 0,-10.90032 c -2.56941,3.97084 -6.15093,6.9814 -10.7446,9.0317 -3.47775,1.24575 -6.3326,1.86862 -8.56453,1.86862 l -0.93432,0 c -5.47613,0 -10.04388,-1.09003 -13.70325,-3.27009 -4.72349,-2.51745 -8.1493,-6.61804 -10.27745,-12.30179 -1.03813,-3.73723 -1.55719,-6.74779 -1.55719,-9.03169 0,-2.77696 0.72669,-6.25468 2.18007,-10.43316 2.82888,-5.91728 7.24091,-9.96597 13.2361,-12.14607 3.0365,-1.11594 5.73562,-1.68691 8.09738,-1.71291 l 0.77859,0 c 9.00571,5e-5 16.01305,3.42586 21.02204,10.27744 l 0.31144,0.7786 0.15572,0 0,-29.11943 m -41.88836,41.42121 0,0.7786 -0.15572,0.15572 0.15572,0.15572 0,0.62287 c -1e-5,8.64241 4.20439,14.87116 12.61322,18.68626 2.6472,0.93432 5.39823,1.40147 8.2531,1.40147 7.68209,0 13.65131,-3.16628 17.90766,-9.49885 1.9724,-3.65937 2.95861,-7.39662 2.95866,-11.21175 -5e-5,-4.90512 -1.55723,-9.42096 -4.67156,-13.54754 -2.20606,-2.38765 -4.38612,-4.04865 -6.54019,-4.98301 -3.29609,-1.45333 -6.51427,-2.18001 -9.65457,-2.18006 -5.6059,5e-5 -10.53699,1.86867 -14.79329,5.60588 -2.75104,2.77702 -4.46395,5.52805 -5.13872,8.2531 -0.62288,2.10223 -0.93432,4.02276 -0.93431,5.76159"
           id="path3020"
           style="font-size:79.7280426px;font-variant:normal;font-weight:bold;font-stretch:normal;text-align:start;line-height:125%;writing-mode:lr-tb;text-anchor:start;font-family:Steiner;-inkscape-font-specification:Steiner Bold"
           inkscape:connector-curvature="0" />
      </g>
    </g>
  </g>
</svg>
